<svg width="87" height="32" viewBox="0 0 87 32" fill="none" xmlns="http://www.w3.org/2000/svg">
<path d="M34.8789 8.54297C35.9334 8.54301 36.8932 8.78552 37.7578 9.27051C38.6437 9.73457 39.2451 10.3148 39.5615 11.0107V9.01758H42.3135V23.8242C42.3135 25.2162 42.0396 26.4081 41.4912 27.3994C40.9428 28.4117 40.1414 29.1816 39.0869 29.709C38.0535 30.2362 36.7875 30.5 35.29 30.5C33.3285 30.5 31.7361 30.0466 30.5127 29.1396C29.2894 28.2327 28.5083 26.9669 28.1709 25.3428L30.9238 24.7422C31.1559 25.7755 31.652 26.577 32.4111 27.1465C33.1705 27.737 34.13 28.0322 35.29 28.0322C36.6821 28.0322 37.7258 27.6732 38.4219 26.9561C39.1389 26.2601 39.498 25.2162 39.498 23.8242V21.3252C39.1816 22.1055 38.5903 22.7377 37.7256 23.2227C36.8821 23.7077 35.9333 23.9511 34.8789 23.9512C33.487 23.9512 32.2635 23.6346 31.209 23.002C30.1543 22.3482 29.3309 21.4412 28.7402 20.2812C28.1497 19.1212 27.8545 17.7813 27.8545 16.2627C27.8545 14.723 28.1498 13.3729 28.7402 12.2129C29.3309 11.0527 30.1432 10.1563 31.1768 9.52344C32.2313 8.86953 33.4657 8.54297 34.8789 8.54297ZM75.5771 8.54297C77.4332 8.543 78.8572 9.0176 79.8486 9.9668C80.8397 10.9159 81.335 12.1393 81.335 13.6367V24.8047H78.583V22.749C78.3088 23.4448 77.7496 24.0456 76.9062 24.5518C76.0836 25.0368 75.0815 25.2793 73.9004 25.2793C72.867 25.2793 71.9387 25.0793 71.1162 24.6787C70.3146 24.2779 69.6717 23.7395 69.1865 23.0645C68.7225 22.3685 68.4902 21.567 68.4902 20.6602C68.4903 19.4791 68.8696 18.5195 69.6289 17.7812C70.3881 17.0431 71.4746 16.5369 72.8877 16.2627L76.5898 15.5039C77.3278 15.3563 77.8342 15.124 78.1084 14.8076C78.3826 14.4912 78.5195 14.0268 78.5195 13.415L78.5068 13.1387C78.4469 12.5112 78.177 12.0127 77.6973 11.6436C77.1699 11.2006 76.4418 10.9795 75.5137 10.9795C74.3326 10.9795 73.4258 11.2746 72.793 11.8652C72.1602 12.4557 71.7909 13.2887 71.6855 14.3643L68.9014 13.9844C69.0069 12.8666 69.3446 11.9069 69.9141 11.1055C70.4834 10.2831 71.2425 9.64996 72.1914 9.20703C73.1406 8.76419 74.2695 8.54297 75.5771 8.54297ZM19.8896 2.5V5.2207H8.97363V12.6875H18.7188V15.377H8.97363V24.8047H6V2.5H19.8896ZM24.9883 24.8047H22.1719V9.01758H24.9883V24.8047ZM60.832 8.54297C62.4348 8.54298 63.6582 9.00666 64.502 9.93457C65.3455 10.8625 65.7675 12.2128 65.7676 13.9844V24.8047H62.9521V14.3643C62.9521 13.3097 62.7199 12.5184 62.2559 11.9912C61.8129 11.4429 61.1587 11.1689 60.2939 11.1689C59.3449 11.169 58.6064 11.5067 58.0791 12.1816C57.5731 12.8354 57.3203 13.7952 57.3203 15.0605V24.8047H54.5039V14.3643C54.5039 13.3097 54.2726 12.5184 53.8086 11.9912C53.3656 11.4428 52.7114 11.169 51.8467 11.1689C50.8975 11.1689 50.1592 11.5066 49.6318 12.1816C49.1257 12.8354 48.873 13.7952 48.873 15.0605V24.8047H46.0566V9.01758H48.8096V10.7891C49.0205 10.1776 49.4841 9.64995 50.2012 9.20703C50.9182 8.76419 51.7521 8.54297 52.7012 8.54297C53.6291 8.54302 54.4833 8.74299 55.2637 9.14355C56.0441 9.54432 56.5502 10.1459 56.7822 10.9473C57.0565 10.2092 57.5627 9.62888 58.3008 9.20703C59.0601 8.76422 59.9039 8.54297 60.832 8.54297ZM73.584 18.2559C72.867 18.4035 72.308 18.6673 71.9072 19.0469C71.5277 19.4266 71.3379 19.9539 71.3379 20.6289C71.3379 21.3247 71.6009 21.8838 72.1279 22.3057C72.6763 22.7275 73.4149 22.9384 74.3428 22.9385C75.1022 22.9385 75.7988 22.7701 76.4316 22.4326C77.0854 22.0951 77.5916 21.6305 77.9502 21.04C78.3298 20.4284 78.5195 19.7323 78.5195 18.9521V17.1982L73.584 18.2559ZM35.2266 11.042C33.8767 11.042 32.7904 11.5168 31.9678 12.4658C31.1663 13.415 30.7656 14.6808 30.7656 16.2627C30.7656 17.8233 31.1767 19.0783 31.999 20.0273C32.8217 20.9765 33.8977 21.4511 35.2266 21.4512C36.5764 21.4512 37.6525 20.9766 38.4541 20.0273C39.2764 19.0783 39.6875 17.8233 39.6875 16.2627C39.6875 14.6808 39.2766 13.415 38.4541 12.4658C37.6314 11.5167 36.5554 11.042 35.2266 11.042ZM25.0195 6.99219H22.1406V2.5H25.0195V6.99219Z" fill="#F3F3F3"/>
</svg>
