<svg width="99" height="32" viewBox="0 0 99 32" fill="none" xmlns="http://www.w3.org/2000/svg">
<g clip-path="url(#clip0_557_11252)">
<path d="M7.08435 8.64917H10.0778V15.2997H16.391V8.64917H19.3883V24.9741H16.391V18.1839H10.0778V24.9741H7.08435V8.64917ZM28.8714 19.6568C28.8714 21.0234 27.758 22.1354 26.3918 22.1354C25.025 22.1354 23.9123 21.0234 23.9123 19.6568V12.6284H21.0735V19.6568C21.0735 22.589 23.4594 24.9741 26.3918 24.9741C29.3235 24.9741 31.7092 22.589 31.7092 19.6568V12.6284H28.8714V19.6568ZM39.634 12.7107C38.2259 12.7107 37.2429 13.1193 36.2937 14.0511V8.64917H33.4457V18.6604C33.4457 22.4077 36.155 24.9741 39.1989 24.9741C42.5828 24.9741 45.5477 22.362 45.5477 18.8425C45.5477 15.3677 42.8137 12.7107 39.634 12.7107ZM39.7048 22.3393C37.775 22.3393 36.2992 20.7276 36.2992 18.8425C36.2992 16.9572 37.775 15.3449 39.7048 15.3449C41.34 15.3449 42.8166 16.9572 42.8166 18.8425C42.8166 20.7276 41.34 22.3393 39.7048 22.3393ZM50.3311 13.4282C50.3311 11.9965 51.285 11.5426 52.3294 11.5426C53.1701 11.5426 54.2826 12.1785 55.0087 12.9508L56.8704 10.7708C55.94 9.52194 54.0554 8.65873 52.5111 8.65873C49.4223 8.65873 47.1967 10.4529 47.1967 13.4282C47.1967 18.9465 53.9872 17.1973 53.9872 20.2866C53.9872 21.2393 53.0564 22.0804 51.9896 22.0804C50.3085 22.0804 49.7632 21.2628 48.9914 20.3996L46.9244 22.534C48.2423 24.1466 49.8769 24.9645 51.8302 24.9645C54.7595 24.9645 57.1215 23.1477 57.1215 20.3086C57.1215 14.1772 50.3311 16.0851 50.3311 13.4282ZM64.6191 12.5507C61.5755 12.5507 58.8658 15.1155 58.8658 18.8637V28.9008H61.7137V23.4732C62.6631 24.4043 63.6455 24.8136 65.0542 24.8136C68.2337 24.8136 70.9681 22.1569 70.9681 18.6821C70.9681 15.1622 68.0023 12.5507 64.6191 12.5507ZM65.1251 22.1797C63.1955 22.1797 61.7195 20.5658 61.7195 18.6821C61.7195 16.7967 63.1955 15.1845 65.1251 15.1845C66.76 15.1845 68.2367 16.7967 68.2367 18.6821C68.2367 20.5658 66.76 22.1797 65.1251 22.1797ZM91.9315 22.3393C90.2516 22.3393 89.7748 21.6129 89.7748 20.4997V15.572H92.3859V13.0742H89.7748V9.781L86.8915 11.0751V21.1129C86.8915 23.6794 88.6622 24.9741 91.091 24.9741C91.4544 24.9741 91.9546 24.9506 92.2274 24.8833L92.9315 22.2947C92.6136 22.3167 92.2504 22.3393 91.9315 22.3393Z" fill="#F3F3F3"/>
<path d="M84.4209 15.7172C83.8749 14.7778 83.1069 14.0248 82.1468 13.4579C81.4293 13.0402 80.6853 12.7751 79.8469 12.6612V9.67652C80.6853 9.32054 81.2056 8.53262 81.2056 7.6134C81.2056 6.3605 80.2009 5.34521 78.949 5.34521C77.6961 5.34521 76.6737 6.3605 76.6737 7.6134C76.6737 8.53262 77.164 9.32054 78.0024 9.67652V12.6626C77.3317 12.7595 76.6362 12.9686 76.001 13.2898C74.7037 12.3046 70.4497 9.07221 67.9611 7.18431C68.0202 6.97152 68.0656 6.7522 68.0656 6.5208C68.0656 5.13309 66.9418 4.0083 65.5536 4.0083C64.1654 4.0083 63.0421 5.13309 63.0421 6.5208C63.0421 7.90835 64.1666 9.03347 65.5548 9.03347C66.0283 9.03347 66.4663 8.89497 66.8442 8.66726L67.3694 9.06567L74.5856 14.2651C74.2042 14.6153 73.8489 15.0137 73.5646 15.4608C72.9887 16.3721 72.6367 17.3748 72.6367 18.4686V18.6968C72.6367 19.4646 72.7826 20.1895 73.0311 20.8704C73.2499 21.465 73.5698 22.0056 73.9661 22.4944L71.5711 24.8952C71.224 24.7661 70.8471 24.7395 70.4853 24.8189C70.1236 24.8982 69.7923 25.08 69.5311 25.3426C69.3503 25.5225 69.207 25.7366 69.1095 25.9723C69.0119 26.2081 68.9622 26.4608 68.963 26.7159C68.9632 27.2345 69.1652 27.722 69.5321 28.0887C69.712 28.2697 69.9259 28.4131 70.1616 28.5108C70.3973 28.6085 70.65 28.6585 70.9051 28.6578C71.1603 28.6584 71.4131 28.6085 71.6488 28.5108C71.8846 28.4131 72.0986 28.2696 72.2785 28.0887C72.4593 27.9087 72.6025 27.6948 72.7001 27.4592C72.7977 27.2235 72.8476 26.9709 72.847 26.7159C72.847 26.5152 72.816 26.3193 72.7576 26.1332L75.2331 23.6574C75.5724 23.8918 75.939 24.0892 76.333 24.2594C77.1102 24.5954 77.9681 24.8002 78.9069 24.8002H79.0789C80.1169 24.8002 81.0959 24.5564 82.0163 24.0577C82.9862 23.5307 83.7453 22.81 84.3187 21.8899C84.8952 20.9674 85.2126 19.948 85.2126 18.8266V18.7706C85.2126 17.6674 84.9573 16.6496 84.4209 15.7172ZM81.3963 20.9107C80.7244 21.6574 79.952 22.1173 79.0789 22.1173H78.9351C78.4364 22.1173 77.9486 21.9795 77.4711 21.7288C76.9328 21.4528 76.5237 21.0591 76.1888 20.5606C75.8427 20.0713 75.6549 19.5371 75.6549 18.9706V18.7986C75.6549 18.2417 75.7617 17.7137 76.031 17.215C76.3189 16.6699 76.7078 16.246 77.2249 15.909C77.7326 15.5743 78.2749 15.4101 78.8789 15.4101H78.9351C79.4827 15.4101 80.0012 15.5181 80.4905 15.7685C80.989 16.0354 81.3963 16.4001 81.712 16.8798C82.0187 17.3597 82.2011 17.8774 82.2598 18.4413C82.269 18.5585 82.2737 18.6785 82.2737 18.7932C82.2737 19.5585 81.9813 20.2673 81.3963 20.9107Z" fill="#F3F3F3"/>
</g>
<defs>
<clipPath id="clip0_557_11252">
<rect width="85.8517" height="25" fill="white" transform="translate(7.07422 4)"/>
</clipPath>
</defs>
</svg>
