<svg width="86" height="32" viewBox="0 0 86 32" fill="none" xmlns="http://www.w3.org/2000/svg">
<path fill-rule="evenodd" clip-rule="evenodd" d="M44.8633 11.7803C44.1953 11.2185 43.0553 10.9379 41.4426 10.9379H37.8052V22.1788H40.525V18.6557H41.7434C43.2222 18.6557 44.3066 18.3303 44.9966 17.6788C45.7739 16.9489 46.1651 15.977 46.1651 14.7636C46.1651 13.5055 45.7309 12.5108 44.8633 11.7803ZM41.6758 16.1122H40.525V13.4814H41.5589C42.8164 13.4814 43.4452 13.9225 43.4452 14.8047C43.4452 15.6755 42.855 16.1122 41.6758 16.1122ZM50.8193 10.9373H47.9832V22.1782H54.1067V19.634H50.8193V10.9373ZM59.6633 10.9373L55.2081 22.1782H58.2616L58.8456 20.544H62.7168L63.2508 22.1782H66.3385L61.9149 10.9373H59.6633ZM59.6298 18.2684L60.7982 14.4262L61.9484 18.2684H59.6298Z" fill="white"/>
<mask id="mask0_557_11195" style="mask-type:luminance" maskUnits="userSpaceOnUse" x="3" y="1" width="80" height="31">
<path d="M3 31.5H82.6242V1.5H3V31.5Z" fill="white"/>
</mask>
<g mask="url(#mask0_557_11195)">
<path fill-rule="evenodd" clip-rule="evenodd" d="M67.7571 22.178H70.5938V10.9371H67.7571V22.178ZM81.6073 13.044C81.249 12.5245 80.7889 12.0831 80.2549 11.7466C79.3986 11.207 78.2302 10.9378 76.7508 10.9378H73.0135V22.178H77.3853C78.9651 22.178 80.2328 21.6617 81.1895 20.6279C82.1463 19.5947 82.624 18.2234 82.624 16.5152C82.624 15.1566 82.2853 13.9995 81.6073 13.044ZM77.0681 19.6332H75.8503V13.4819H77.0851C77.9528 13.4819 78.6195 13.7537 79.0871 14.2952C79.5547 14.8368 79.7885 15.6052 79.7885 16.5999C79.7885 18.6221 78.8817 19.6332 77.0681 19.6332ZM14.7779 1.49976L5.58511 3.90744L3.05168 13.1521L6.22021 16.4053L3.00049 19.6048L5.38479 28.8899L14.5378 31.4473L17.7581 28.2472L20.9267 31.4998L30.1195 29.0921L32.6523 19.8468L29.4844 16.5949L32.7041 13.3954L30.3198 4.10966L21.1655 1.55221L17.9465 4.75171L14.7779 1.49976ZM9.13661 5.68571L13.9791 4.41678L16.0968 6.59065L13.0085 9.65934L9.13661 5.68571ZM19.7671 6.61972L21.9188 4.48187L26.7405 5.82916L22.8054 9.73897L19.7671 6.61972ZM5.9529 12.3931L7.28692 7.52402L11.1575 11.4976L8.0699 14.5663L5.9529 12.3925V12.3931ZM24.6248 11.6076L28.5599 7.69654L29.8149 12.5877L27.6638 14.7262L24.6248 11.6076ZM14.8285 11.5274L17.9168 8.45866L20.9545 11.5779L17.8668 14.6466L14.8285 11.5274ZM9.89051 16.4344L12.9782 13.3657L16.0178 16.4849L12.9289 19.5536L9.89051 16.4344ZM19.6874 16.5146L22.7751 13.4459L25.8135 16.5652L22.7252 19.6339L19.6874 16.5146ZM5.88845 20.4118L8.04083 18.2727L11.0786 21.3925L7.14474 25.3017L5.88845 20.4118ZM14.7488 21.4216L17.8371 18.3529L20.8755 21.4722L17.7878 24.5409L14.7488 21.4216ZM24.5452 21.5025L27.6334 18.4338L29.7511 20.607L28.4177 25.4761L24.5452 21.5025ZM8.96409 27.171L12.8985 23.2599L15.9382 26.3792L13.7858 28.5183L8.96409 27.171ZM19.6078 26.4089L22.6955 23.3402L26.5667 27.3144L21.7248 28.5827L19.6078 26.4089Z" fill="white"/>
</g>
</svg>
