<svg width="130" height="32" viewBox="0 0 130 32" fill="none" xmlns="http://www.w3.org/2000/svg">
<g clip-path="url(#clip0_557_11236)">
<path d="M12.3411 14.0845L17.0025 9.42516L21.6658 14.0883L24.3765 11.3757L17.0025 4L9.62842 11.3738L12.3411 14.0845Z" fill="#F3F3F3"/>
<path d="M5 16.0005L7.71168 13.2889L10.4234 16.0005L7.71168 18.7121L5 16.0005Z" fill="#F3F3F3"/>
<path d="M12.341 17.9155L17.0024 22.5767L21.6656 17.9136L24.3783 20.6224L24.3764 20.6243L17.0024 28L9.6283 20.6281L9.62451 20.6243L12.341 17.9155Z" fill="#F3F3F3"/>
<path d="M23.5762 16.001L26.2878 13.2893L28.9994 16.001L26.2878 18.7126L23.5762 16.001Z" fill="#F3F3F3"/>
<path d="M19.753 15.999L17.0024 13.2466L14.9684 15.2805L14.7333 15.5137L14.2518 15.9952L14.248 15.999L14.2518 16.0047L17.0024 18.7533L19.753 16.0009L19.7549 15.999H19.753Z" fill="#F3F3F3"/>
<path d="M33.2302 9.81567H39.1295C40.5929 9.81567 41.7 10.1948 42.4506 10.953C42.7335 11.2331 42.9564 11.5677 43.106 11.9366C43.2556 12.3055 43.3286 12.7009 43.3207 13.0988V13.1348C43.3258 13.4608 43.2804 13.7857 43.1862 14.0978C43.1022 14.3665 42.9802 14.6218 42.8241 14.856C42.6785 15.0769 42.5023 15.276 42.3009 15.4475C42.104 15.6169 41.8884 15.7632 41.6583 15.8834C42.322 16.1146 42.9189 16.5052 43.3966 17.0208C43.8187 17.501 44.0297 18.1645 44.0297 19.0112V19.0472C44.0417 19.576 43.9266 20.0999 43.6942 20.575C43.4689 21.0128 43.1387 21.3879 42.7331 21.6669C42.2745 21.9743 41.7639 22.1959 41.2261 22.3208C40.5871 22.4724 39.9321 22.5456 39.2754 22.5388H33.2302V9.81567ZM38.538 14.9603C39.0484 14.985 39.5563 14.8751 40.0109 14.6418C40.1882 14.5383 40.333 14.3872 40.4288 14.2056C40.5246 14.024 40.5677 13.8192 40.5531 13.6144V13.5784C40.5625 13.3897 40.5242 13.2017 40.4417 13.0317C40.3592 12.8618 40.2351 12.7153 40.0811 12.606C39.7664 12.3823 39.3121 12.2705 38.7181 12.2705H35.9581V14.9603H38.538ZM39.283 20.0878C39.7915 20.1163 40.2977 20 40.7427 19.7523C40.916 19.641 41.0564 19.4851 41.149 19.3011C41.2417 19.1171 41.2834 18.9116 41.2697 18.706V18.67C41.2765 18.4745 41.2353 18.2804 41.1497 18.1046C41.0641 17.9288 40.9367 17.7767 40.7787 17.6615C40.4526 17.4088 39.9256 17.2824 39.1977 17.2824H35.9581V20.0878H39.283Z" fill="#F3F3F3"/>
<path d="M47.5439 9.81567H50.3438V22.5426H47.5439V9.81567Z" fill="#F3F3F3"/>
<path d="M54.5801 9.81567H57.1619L63.1294 17.6482V9.81567H65.8933V22.5426H63.5105L57.3477 14.4523V22.5426H54.5801V9.81567Z" fill="#F3F3F3"/>
<path d="M74.3702 9.72461H76.9483L82.4021 22.5426H79.479L78.3151 19.6878H72.9333L71.7694 22.5426H68.9146L74.3702 9.72461ZM77.316 17.216L75.6213 13.0874L73.9342 17.216H77.316Z" fill="#F3F3F3"/>
<path d="M85.429 9.81567H88.0108L93.9745 17.6482V9.81567H96.7384V22.5426H94.3555L88.1928 14.4523V22.5426H85.429V9.81567Z" fill="#F3F3F3"/>
<path d="M106.815 22.7663C105.923 22.7739 105.038 22.6011 104.214 22.2582C103.439 21.938 102.735 21.4658 102.145 20.8693C101.555 20.2729 101.09 19.5644 100.778 18.7855C100.448 17.9708 100.281 17.0996 100.287 16.2208V16.1848C100.272 14.4527 100.938 12.7841 102.142 11.5387C102.735 10.9304 103.444 10.4481 104.228 10.1208C105.08 9.76779 105.995 9.59172 106.918 9.60332C107.463 9.59925 108.008 9.64813 108.544 9.74928C109.003 9.83603 109.451 9.97007 109.882 10.1492C110.274 10.3139 110.645 10.5211 110.991 10.7672C111.329 11.0072 111.646 11.2748 111.939 11.5671L110.159 13.622C109.704 13.2023 109.194 12.8471 108.643 12.5661C108.101 12.3071 107.507 12.1773 106.906 12.187C106.407 12.1817 105.912 12.2827 105.454 12.4834C104.996 12.684 104.587 12.9798 104.252 13.3509C103.921 13.7211 103.661 14.1499 103.486 14.6152C103.304 15.1071 103.212 15.6279 103.215 16.1526V16.1886C103.214 16.7124 103.305 17.2324 103.486 17.724C103.659 18.1911 103.916 18.6223 104.245 18.9959C104.577 19.3717 104.985 19.6717 105.443 19.8758C105.901 20.0799 106.397 20.1832 106.899 20.1788C107.537 20.1989 108.17 20.0615 108.743 19.7788C109.288 19.4817 109.792 19.1146 110.243 18.687L112.024 20.4878C111.71 20.8292 111.37 21.1461 111.006 21.4356C110.65 21.7175 110.263 21.9585 109.852 22.154C109.415 22.3599 108.954 22.512 108.48 22.607C107.932 22.7169 107.374 22.7702 106.815 22.7663Z" fill="#F3F3F3"/>
<path d="M115.328 9.81567H124.907V12.3065H118.082V14.8883H124.091V17.3791H118.092V20.0518H125.001V22.5426H115.334L115.328 9.81567Z" fill="#F3F3F3"/>
</g>
<defs>
<clipPath id="clip0_557_11236">
<rect width="119.998" height="24" fill="white" transform="translate(5.00098 4)"/>
</clipPath>
</defs>
</svg>
