<svg width="114" height="32" viewBox="0 0 114 32" fill="none" xmlns="http://www.w3.org/2000/svg">
<path d="M79.2737 13.1296C77.7194 13.1296 76.6102 13.6604 76.0658 14.6657L75.7732 15.2102V13.3916H73.2442V24.4453H75.9042V17.8691C75.9042 16.2979 76.7582 15.3966 78.2458 15.3966C79.6645 15.3966 80.4778 16.2742 80.4778 17.8036V24.4453H83.139V17.3292C83.139 14.6974 81.6943 13.1296 79.2737 13.1296ZM66.3731 13.1296C63.2341 13.1296 61.2902 15.0882 61.2902 18.2407V19.7927C61.2902 22.8244 63.2567 24.7074 66.4228 24.7074C68.5407 24.7074 70.025 23.9314 70.9591 22.3353L69.31 21.3865C68.6198 22.3071 67.5174 22.8775 66.424 22.8775C64.8212 22.8775 63.8644 21.888 63.8644 20.2299V19.7905H71.2889V17.9572C71.2889 15.0204 69.3608 13.1296 66.3754 13.1296H66.3731ZM68.8683 18.0035H63.8554V17.7381C63.8554 15.9184 64.7489 14.9142 66.3709 14.9142C67.933 14.9142 68.8661 15.9037 68.8661 17.5619L68.8683 18.0035ZM109.557 11.5719V9.45741H100.355V11.5719H103.581V22.3263H100.355V24.4408H109.557V22.3263H106.33V11.5719H109.557ZM39.7893 9.15243C35.68 9.15243 33.125 11.7131 33.125 15.8371V18.0668C33.125 22.1896 35.6789 24.7514 39.7893 24.7514C43.8997 24.7514 46.4536 22.1896 46.4536 18.0668V15.8371C46.4525 11.7086 43.8952 9.15243 39.7893 9.15243ZM43.7043 18.2193C43.7043 20.9573 42.2777 22.5274 39.7893 22.5274C37.3009 22.5274 35.8755 20.9573 35.8755 18.2193V15.6835C35.8755 12.9454 37.3032 11.3754 39.7905 11.3754C42.2777 11.3754 43.7055 12.9454 43.7055 15.6835L43.7043 18.2193ZM54.8089 13.1296C53.4128 13.1296 52.2042 13.7079 51.5739 14.6759L51.2881 15.1164V13.3916H48.7579V28.2485H51.4191V22.8674L51.7038 23.2898C52.3024 24.1776 53.4715 24.7074 54.8315 24.7074C57.1256 24.7074 59.44 23.2085 59.44 19.8582V17.9787C59.44 15.5649 58.0134 13.1296 54.8089 13.1296ZM56.7788 19.7284C56.7788 21.5096 55.7396 22.6166 54.0679 22.6166C52.5091 22.6166 51.4214 21.4464 51.4214 19.7724V18.1097C51.4214 16.4154 52.5182 15.2226 54.0905 15.2226C55.7498 15.2226 56.7811 16.3284 56.7811 18.1097L56.7788 19.7284ZM90.4923 9.45854L85.1236 24.4453H87.8266L88.8545 21.2329H95.0263L95.0365 21.2645L96.053 24.4453H98.7549L93.3772 9.45741L90.4923 9.45854ZM89.5141 19.1195L91.9359 11.5425L94.3328 19.1195H89.5141ZM27.9223 13.6424C28.2136 12.7681 28.3147 11.8416 28.2189 10.9251C28.123 10.0085 27.8324 9.12301 27.3666 8.32787C26.6751 7.12612 25.6201 6.17476 24.3536 5.61069C23.087 5.04661 21.6741 4.89892 20.3183 5.18886C19.7067 4.49921 18.9549 3.94814 18.1132 3.57257C17.2715 3.19699 16.3592 3.00556 15.4375 3.0111C14.0507 3.00795 12.6988 3.44536 11.5768 4.26026C10.4547 5.07516 9.62053 6.22541 9.1945 7.54509C8.29169 7.73029 7.43882 8.10612 6.69295 8.64746C5.94708 9.18879 5.3254 9.88315 4.86948 10.6841C4.17432 11.8839 3.87776 13.2733 4.02248 14.6523C4.16721 16.0313 4.74575 17.3289 5.67484 18.3582C5.38471 19.2318 5.28421 20.1571 5.38004 21.0726C5.47587 21.9881 5.76583 22.8725 6.23058 23.6671C6.92143 24.8711 7.97688 25.8246 9.2447 26.39C10.5125 26.9554 11.9272 27.1035 13.2846 26.8129C13.8956 27.5017 14.6465 28.0522 15.4871 28.4278C16.3278 28.8033 17.239 28.9952 18.1597 28.9906C19.5464 28.9938 20.8983 28.5564 22.0204 27.7415C23.1425 26.9266 23.9767 25.7763 24.4027 24.4566C25.3053 24.2713 26.158 23.8955 26.9037 23.3541C27.6493 22.8128 28.2708 22.1185 28.7266 21.3176C29.4235 20.1183 29.7212 18.7284 29.5767 17.3488C29.4321 15.9692 28.8528 14.6712 27.9223 13.6424ZM18.1597 27.2963C17.0208 27.2973 15.918 26.8974 15.0444 26.1668C15.0828 26.1453 15.1574 26.108 15.2003 26.0798L20.3736 23.0933C20.5034 23.0195 20.6112 22.9125 20.6858 22.7833C20.7605 22.654 20.7993 22.5072 20.7983 22.3579V15.0633L22.984 16.325C22.9958 16.3306 23.0059 16.3392 23.0135 16.3499C23.021 16.3606 23.0256 16.373 23.0269 16.386V22.4234C23.0269 23.7148 22.5143 24.9534 21.6017 25.8671C20.6891 26.7807 19.4511 27.2948 18.1597 27.2963ZM7.70124 22.8301C7.13095 21.8445 6.92506 20.6899 7.11953 19.568C7.15793 19.5917 7.22571 19.6323 7.27315 19.6594L12.4476 22.6471C12.5764 22.7225 12.723 22.7623 12.8723 22.7623C13.0216 22.7623 13.1682 22.7225 13.297 22.6471L19.61 18.9964V21.5198C19.6112 21.5328 19.609 21.5458 19.6037 21.5577C19.5983 21.5696 19.59 21.5799 19.5795 21.5876L14.3497 24.6057C13.2315 25.2496 11.9036 25.4236 10.6572 25.0897C9.41082 24.7558 8.34778 23.9411 7.70124 22.8244V22.8301ZM6.34579 11.5346C6.91341 10.5476 7.81034 9.79181 8.87936 9.3998V15.549C8.8786 15.6983 8.91753 15.845 8.99216 15.9742C9.06679 16.1034 9.17444 16.2105 9.30407 16.2844L15.6182 19.9305L13.4246 21.1968C13.414 21.204 13.4016 21.2083 13.3888 21.2095C13.376 21.2107 13.363 21.2087 13.3512 21.2035L8.12256 18.1843C7.00536 17.5379 6.19029 16.4747 5.85631 15.2279C5.52234 13.9812 5.69676 12.6529 6.34127 11.5346H6.34579ZM24.3055 15.714L17.9914 12.0678L20.1748 10.805C20.1855 10.7979 20.1978 10.7935 20.2107 10.7923C20.2235 10.7912 20.2364 10.7932 20.2482 10.7982L25.4769 13.8174C26.2777 14.2802 26.9302 14.9615 27.3579 15.7816C27.7856 16.6017 27.9708 17.5266 27.8919 18.4482C27.8129 19.3697 27.4731 20.2497 26.9122 20.9851C26.3513 21.7206 25.5925 22.281 24.7246 22.6008V16.4527C24.7263 16.3031 24.6881 16.1558 24.6138 16.0259C24.5395 15.896 24.4319 15.7883 24.3022 15.714H24.3055ZM26.4822 12.4383C26.4438 12.4146 26.376 12.3739 26.3286 12.3468L21.1541 9.35914C21.0253 9.28369 20.8787 9.24392 20.7294 9.24392C20.5801 9.24392 20.4335 9.28369 20.3047 9.35914L13.9905 13.0042V10.4819C13.9901 10.4689 13.9927 10.456 13.9982 10.4442C14.0037 10.4324 14.0119 10.4221 14.0222 10.4141L19.2508 7.39599C20.052 6.93418 20.9681 6.71009 21.892 6.74996C22.8158 6.78982 23.7092 7.09198 24.4676 7.62108C25.226 8.15018 25.818 8.88433 26.1744 9.73763C26.5308 10.5909 26.6367 11.5281 26.4799 12.4394L26.4822 12.4383ZM12.7989 16.9384L10.6121 15.6767C10.6008 15.6705 10.5912 15.6617 10.584 15.6511C10.5767 15.6405 10.572 15.6284 10.5703 15.6157V9.57827C10.5696 8.65293 10.8327 7.74657 11.3287 6.96542C11.8248 6.18428 12.5332 5.56072 13.371 5.16784C14.2088 4.77497 15.1412 4.62906 16.059 4.74721C16.9767 4.86537 17.8418 5.24269 18.5528 5.83496C18.5144 5.85642 18.4455 5.8937 18.3969 5.92194L13.2236 8.90845C13.094 8.98236 12.9863 9.0894 12.9117 9.21862C12.837 9.34783 12.7981 9.49457 12.7989 9.64378V16.9384ZM13.986 14.3777L16.7986 12.7534L19.61 14.3777V17.624L16.7975 19.2483L13.9849 17.624L13.986 14.3777Z" fill="#F3F3F3"/>
</svg>
