<svg width="138" height="32" viewBox="0 0 138 32" fill="none" xmlns="http://www.w3.org/2000/svg">
<path d="M8.69198 14.7921C8.64503 14.7306 8.58298 14.6823 8.51186 14.6518C8.44073 14.6213 8.36294 14.6097 8.28601 14.6181C8.20908 14.6266 8.13564 14.6547 8.07278 14.6998C8.00993 14.745 7.9598 14.8056 7.92725 14.8758L4.04862 22.6329C4.0132 22.7035 3.9964 22.782 3.99983 22.8609C4.00325 22.9399 4.02679 23.0166 4.06821 23.0839C4.10963 23.1511 4.16755 23.2067 4.23648 23.2453C4.30541 23.2839 4.38306 23.3043 4.46206 23.3044H9.86298C9.95041 23.3061 10.0364 23.2821 10.1103 23.2354C10.1842 23.1886 10.2428 23.1212 10.2788 23.0415C11.4426 20.6518 10.7376 16.9788 8.69198 14.7921Z" fill="white"/>
<path d="M11.5392 7.74819C10.5723 9.23562 10.0088 10.9489 9.90408 12.7199C9.79934 14.4908 10.1569 16.2586 10.9417 17.8496L13.5586 23.0426C13.5967 23.1197 13.6556 23.1847 13.7286 23.2303C13.8017 23.2759 13.8859 23.3003 13.972 23.3007H19.3729C19.4486 23.2944 19.5218 23.2702 19.5862 23.2301C19.6507 23.1899 19.7047 23.135 19.7437 23.0698C19.7827 23.0046 19.8057 22.9311 19.8106 22.8553C19.8155 22.7795 19.8023 22.7036 19.772 22.6339L12.3278 7.74819C12.2922 7.67386 12.2362 7.61112 12.1665 7.56721C12.0967 7.5233 12.0159 7.5 11.9335 7.5C11.8511 7.5 11.7703 7.5233 11.7005 7.56721C11.6308 7.61112 11.5748 7.67386 11.5392 7.74819Z" fill="white"/>
<path d="M121.706 10.2971V23.3069H124.478V13.3847L125.647 16.0182L129.568 23.3069H133.053V10.2971H130.28V18.6923L129.231 16.2571L126.082 10.2971H121.706Z" fill="white"/>
<path d="M104.068 10.2971H101.037V23.3069H104.068V10.2971Z" fill="white"/>
<path d="M97.5454 19.4566C97.5454 17.1792 96.3386 16.1109 92.9308 15.3773C91.05 14.9615 90.5959 14.5457 90.5959 13.9434C90.5959 13.1907 91.2675 12.8728 92.5078 12.8728C94.0133 12.8728 95.4998 13.3293 96.905 13.9626V10.9873C95.5556 10.3729 94.0858 10.0684 92.6034 10.096C89.2361 10.096 87.494 11.5609 87.494 13.9578C87.494 15.8696 88.3854 17.4014 91.8697 18.0753C93.9488 18.5103 94.3861 18.8472 94.3861 19.5402C94.3861 20.2333 93.9488 20.6491 92.4743 20.6491C90.7044 20.6167 88.9699 20.148 87.4247 19.2845V22.4127C88.4738 22.9265 89.8599 23.5 92.4432 23.5C96.0853 23.5 97.5311 21.8774 97.5311 19.4614" fill="white"/>
<path d="M84.9293 19.4566C84.9293 17.1792 83.7344 16.1109 80.317 15.3773C78.4362 14.9615 77.9798 14.5457 77.9798 13.9434C77.9798 13.1907 78.6537 12.8728 79.8916 12.8728C81.3972 12.8728 82.8812 13.3293 84.2864 13.9626V10.9873C82.937 10.3729 81.4672 10.0684 79.9848 10.096C76.62 10.096 74.8755 11.5609 74.8755 13.9578C74.8755 15.8696 75.7668 17.4014 79.2535 18.0753C81.3327 18.5103 81.7676 18.8472 81.7676 19.5402C81.7676 20.2333 81.3327 20.6491 79.8558 20.6491C78.0859 20.6167 76.3514 20.148 74.8062 19.2845V22.4127C75.8577 22.9265 77.2437 23.5 79.8247 23.5C83.4691 23.5 84.9126 21.8774 84.9126 19.4614" fill="white"/>
<path d="M51.3552 10.2971V23.3069H57.583L58.5628 20.4942H54.4046V10.2971H51.3552Z" fill="white"/>
<path d="M39.0492 10.2971V13.1075H42.4164V23.3069H45.4658V13.1075H49.0696V10.2971H39.0492Z" fill="white"/>
<path d="M34.6231 10.2971H30.6274L26.0868 23.3069H29.5639L30.2092 21.1155C31.7928 21.5809 33.4768 21.5809 35.0604 21.1155L35.7033 23.3069H39.1685L34.6231 10.2971ZM32.6253 18.7712C32.0591 18.772 31.4957 18.6915 30.9524 18.5322L32.6253 12.8541L34.2981 18.5322C33.7548 18.6913 33.1914 18.7718 32.6253 18.7712Z" fill="white"/>
<path d="M68.3165 10.2971H64.3207L59.7802 23.3069H63.2453L63.8906 21.1155C65.4742 21.5809 67.1583 21.5809 68.7419 21.1155L69.3847 23.3069H72.8499L68.3165 10.2971ZM66.3186 18.7712C65.7524 18.7722 65.189 18.6917 64.6458 18.5322L66.3186 12.8541L67.9915 18.5322C67.4482 18.6917 66.8848 18.7722 66.3186 18.7712Z" fill="white"/>
<path d="M114.986 10.2971H110.99L106.45 23.3069H109.915L110.558 21.1155C112.141 21.5809 113.825 21.5809 115.409 21.1155L116.052 23.3069H119.519L114.986 10.2971ZM112.988 18.7712C112.422 18.7718 111.859 18.6913 111.315 18.5322L112.988 12.8541L114.661 18.5322C114.118 18.6913 113.554 18.7718 112.988 18.7712Z" fill="white"/>
</svg>
